<svg width="27" height="27" viewBox="0 0 27 27" fill="none" xmlns="http://www.w3.org/2000/svg">
<circle cx="13.5" cy="13.5" r="12.5" fill="#FFFF00" stroke="black" stroke-width="2"/>
<path d="M8.03334 13.4333C7.8348 9.45795 8.49006 11.5158 10.8907 10.7461C11.2292 9.45814 10.281 7.89613 12.8181 8.00543C13.8583 8.05026 15.4402 7.90106 16.4237 8.16521C17.151 8.36056 16.4258 10.7215 17.2565 11.0132C18.6305 11.4538 19.5357 10.427 19.9349 12.4129C20.0464 12.9676 19.9815 13.9481 19.979 14.4668C19.9869 15.7966 20.1991 16.6515 18.3902 16.6428C17.3466 16.6377 17.8692 16.6058 16.8348 16.7198C16.7353 17.425 16.8043 19.0485 16.5012 19.5611C16.0948 20.2486 12.6831 19.9168 11.9456 19.9401C10.5751 19.9833 11.0443 18.0461 10.8168 17.049C9.78708 16.7923 9.31233 17.1684 8.62191 16.6553C7.991 16.1864 8.05526 14.2305 8.03334 13.4333Z" fill="black"/>
</svg>
