<svg width="28" height="23" viewBox="0 0 28 23" fill="none" xmlns="http://www.w3.org/2000/svg">
<path d="M26.1008 7.9638C27.8151 9.67814 27.9222 12.3919 26.4219 14.2309L26.1008 14.5866L18.8989 21.7885C17.8831 22.8043 16.2345 22.8043 15.2187 21.7885C14.2035 20.7728 14.2035 19.126 15.2187 18.1103L22.0548 11.2742L15.2187 4.44006C14.2035 3.42438 14.2035 1.77757 15.2187 0.761881C16.2345 -0.253929 17.8831 -0.253929 18.8989 0.761881L26.1008 7.9638Z" fill="#FFF062"/>
<path d="M22.8413 8.67373L2.60118 8.67373C1.16461 8.67373 3.7947e-05 9.8383 3.77003e-05 11.2749C3.74536e-05 12.7114 1.16461 13.876 2.60118 13.876L22.8413 13.876C24.2778 13.8759 25.4425 12.7114 25.4425 11.2749C25.4425 9.83839 24.2778 8.67387 22.8413 8.67373Z" fill="#FFF062"/>
</svg>
