<svg width="32" height="32" viewBox="0 0 32 32" fill="none" xmlns="http://www.w3.org/2000/svg">
<path d="M7.77786 7.77849C12.0735 3.48284 19.0385 3.48239 23.3342 7.77786C27.6299 12.0736 27.6299 19.0391 23.3342 23.3348C19.0385 27.6303 12.0735 27.6299 7.77786 23.3342C3.48247 19.0385 3.48247 12.0742 7.77786 7.77849ZM10.0635 14.1317C9.34071 15.0182 9.39264 16.3261 10.2188 17.1524L13.3436 20.2773C13.8725 20.8062 14.7313 20.8062 15.2602 20.2773C15.7885 19.7484 15.7881 18.8914 15.2596 18.3626L13.8075 16.9105H20.5747C21.3226 16.9105 21.9289 16.3043 21.9289 15.5564C21.9289 14.8084 21.3226 14.2022 20.5747 14.2022H13.8075L15.2596 12.7501C15.7882 12.2212 15.7882 11.3636 15.2596 10.8348C14.7307 10.3061 13.8724 10.3066 13.3436 10.8354L10.2188 13.9603L10.0635 14.1317Z" fill="#FFF062"/>
</svg>
