<svg width="199" height="210" viewBox="0 0 199 210" fill="none" xmlns="http://www.w3.org/2000/svg">
<g clip-path="url(#clip0_1265_12951)">
<path d="M94.3184 -123.977C99.4996 -123.603 104.638 -122.616 109.512 -120.819C141.497 -109.002 148.925 -72.3322 147.636 -39.772C144.497 14.7591 139.056 79.8919 120.213 131.493C119.76 132.74 120.142 134.134 121.186 134.959C121.609 135.295 122.111 135.52 122.642 135.6C128.357 136.448 133.735 135.986 139.127 135.807C143.438 135.664 164.544 131.954 172.884 131.508C174.751 131.407 176.105 133.293 175.375 135.013C169.452 148.934 137.58 152.14 118.356 155.336C112.534 156.305 107.532 159.959 104.751 165.161C72.0571 226.312 9.03911 199.336 20.9191 128.392C20.9418 128.256 21.0611 128.144 21.074 128.006C21.7937 121.825 23.543 113.365 24.1983 110.389C31.1183 78.9411 40.114 55.7258 37.3909 22.551C34.566 -3.9745 24.1613 -38.1435 24.7332 -67.6443C25.3788 -101.026 54.2575 -126.871 87.5568 -124.46L94.3081 -123.973L94.3184 -123.977Z" fill="#483B58"/>
<path d="M84.9949 174.002C84.6886 173.845 84.4482 173.565 84.302 173.176C83.3567 170.622 84.7006 166.89 86.7213 163.316C89.0132 159.274 91.2576 158.048 93.4793 159.111C95.1056 159.887 96.1467 161.58 95.1256 164.873C93.7271 169.394 90.3319 174.558 87.1655 174.873C86.896 174.902 86.6491 174.849 86.4321 174.74L84.9896 174.006L84.9949 174.002Z" fill="#2E213D"/>
<path d="M73.745 168.562C73.3947 168.401 73.1004 168.116 72.9008 167.717C71.6101 165.106 72.7201 161.288 74.595 157.636C76.7176 153.504 79.0729 152.253 81.6186 153.337C83.4854 154.13 84.7943 155.864 83.9984 159.232C82.9063 163.857 79.6732 169.134 76.2197 169.457C75.9257 169.483 75.6489 169.433 75.3977 169.32L73.7392 168.571L73.745 168.562Z" fill="#2E213D"/>
</g>
<defs>
<clipPath id="clip0_1265_12951">
<rect width="169.24" height="325.088" fill="white" transform="translate(168.496 209.509) rotate(-174.626)"/>
</clipPath>
</defs>
</svg>
