<svg width="167" height="152" viewBox="0 0 167 152" fill="none" xmlns="http://www.w3.org/2000/svg">
<path d="M53.2906 0.0224836H0V18.0993H17.1978C18.4424 18.0993 19.4607 19.1111 19.4607 20.3477V58.3675H37.6542V20.3252C37.6542 19.0886 38.6725 18.0768 39.9171 18.0768H53.3133C58.3368 18.0768 62.41 14.0298 62.41 9.03842C62.41 4.04705 58.3368 0 53.3133 0L53.2906 0.0224836Z" fill="#FFF062"/>
<path d="M90.5152 22.2139C76.689 22.2139 65.4652 33.3882 65.4652 47.1032V58.3451H83.6587V47.1032C83.6587 43.3485 86.7362 40.2682 90.5378 40.2682C94.3395 40.2682 97.417 43.326 97.417 47.1032V58.3451H115.61V47.1032C115.61 33.3657 104.364 22.2139 90.5605 22.2139H90.5152Z" fill="#FFF062"/>
<path d="M52.0235 22.2139C46.9999 22.2139 42.9268 26.2609 42.9268 31.2523V58.3675H61.1202V31.2523C61.1202 26.2609 57.0471 22.2139 52.0235 22.2139Z" fill="#FFF062"/>
<path d="M157.315 22.2139C152.472 22.5287 148.829 26.7331 148.829 31.5446V35.5692C148.829 39.0317 146.317 42.1344 142.855 42.5841C138.669 43.1237 135.071 39.8861 135.071 35.8165V31.5446C135.071 26.7331 131.405 22.5287 126.585 22.2139C121.29 21.8767 116.877 26.0361 116.877 31.2299V35.2319C116.877 48.0701 126.427 59.222 139.28 60.571C141.95 60.8408 144.552 60.7059 147.019 60.1888C148.399 59.8965 149.689 60.9757 149.689 62.3922V75.7924H167V35.8165V38.3796V31.2523C167 26.0586 162.587 21.8991 157.292 22.2364L157.315 22.2139Z" fill="#FFF062"/>
<mask id="mask0_1253_34077" style="mask-type:luminance" maskUnits="userSpaceOnUse" x="25" y="104" width="20" height="12">
<path d="M25 104.575H44.612V115.176H25V104.575Z" fill="white"/>
</mask>
<g mask="url(#mask0_1253_34077)">
<path d="M34.1172 104.773C36.4552 104.601 38.4086 105.281 40.2012 106.769V105.08C41.8894 104.834 42.5435 104.766 44.1992 105.091C44.2904 108.262 44.2839 111.664 44.2622 115.051H40.2077C40.2598 113.683 40.2055 112.281 40.199 111C38.3586 108.923 37.157 108.31 34.3302 108.515C32.8048 108.868 32.1791 109.119 31.0601 110.274C29.8085 111.566 29.1697 113.279 29.0024 115.051H25.0022C25.3499 110.052 28.4201 105.191 34.1172 104.773Z" fill="#483B58"/>
</g>
<mask id="mask1_1253_34077" style="mask-type:luminance" maskUnits="userSpaceOnUse" x="51" y="83" width="15" height="33">
<path d="M51.287 83H65.7494V115.176H51.287V83Z" fill="white"/>
</mask>
<g mask="url(#mask1_1253_34077)">
<path fill-rule="evenodd" clip-rule="evenodd" d="M57.8967 83.085C63.4787 82.7145 65.1822 88.4945 65.3647 92.9885C65.6559 100.139 63.7177 107.011 59.9088 113.042C59.4764 113.726 58.9983 114.395 58.4942 115.051H51.7737C51.5433 112.31 51.5716 107.563 51.5564 105.392L51.5347 97.4347C51.5455 92.3238 51.1066 84.2968 57.6012 83.1068C57.699 83.0981 57.7968 83.0915 57.8967 83.085ZM57.8858 86.7661C56.9819 87.202 56.2171 87.8341 55.9325 88.817C54.8895 92.4241 55.1589 97.4913 55.1633 101.266C55.1589 105.148 55.185 109.032 55.248 112.911C55.8303 111.915 56.367 111.49 56.9494 110.66C57.7642 109.204 59.1113 106.92 59.6632 105.353C61.3841 100.479 62.4988 94.4684 61.1299 89.4011C60.6258 87.5333 59.8045 86.6833 57.8858 86.7661Z" fill="#483B58"/>
</g>
<mask id="mask2_1253_34077" style="mask-type:luminance" maskUnits="userSpaceOnUse" x="119" y="83" width="20" height="33">
<path d="M119.705 83H138.061V115.176H119.705V83Z" fill="white"/>
</mask>
<g mask="url(#mask2_1253_34077)">
<path fill-rule="evenodd" clip-rule="evenodd" d="M120.539 89.4316C120.933 84.9898 125.168 81.7773 129.476 83.449C131.071 84.0745 132.351 85.3059 133.042 86.8751C134.622 90.456 133.772 96.1902 132.629 99.8364C132.103 101.508 131.034 104.043 130.369 105.734C133.305 105.701 135.243 106.397 136.801 109.058C137.933 110.998 138.061 113.011 138.055 115.051H134.065C134.061 113.162 133.881 111.477 132.825 110.37C132.114 109.627 131.195 109.308 130.178 109.326C128.79 109.348 127.51 110.182 126.558 111.157C125.585 112.153 124.981 113.517 124.607 115.051H119.783C119.953 114.711 120.098 114.382 120.207 114.073C120.481 113.293 120.333 110.106 120.337 109.025L120.333 99.0039C120.331 95.7695 120.253 92.6638 120.539 89.4316ZM126.447 86.7748C125.507 87.1519 124.952 87.6248 124.598 88.5925C123.701 91.0531 123.999 94.3812 123.999 96.9704L124.003 108.929C124.742 108.108 125.068 107.436 125.583 106.458C126.208 105.309 127.201 103.648 127.669 102.463C129.279 98.3827 130.989 93.553 130.046 89.1439C129.648 87.2827 128.166 86.6702 126.447 86.7748Z" fill="#483B58"/>
</g>
<mask id="mask3_1253_34077" style="mask-type:luminance" maskUnits="userSpaceOnUse" x="29" y="118" width="101" height="34">
<path d="M29.1088 118.767H129.161V152H29.1088V118.767Z" fill="white"/>
</mask>
<g mask="url(#mask3_1253_34077)">
<path fill-rule="evenodd" clip-rule="evenodd" d="M33.1546 118.767C33.046 119.901 33.1285 121.058 33.3719 122.146C34.0281 125.09 36.2487 126.487 39.1538 126.21C43.4082 125.539 44.2556 122.248 44.3882 118.767H48.4535C48.4361 121.5 48.4079 124.225 48.4101 126.812C49.4443 125.857 50.924 124.715 52.0452 123.752C53.5814 122.433 54.6765 121.363 56.1193 119.955C56.0649 119.63 56.0193 119.227 55.9824 118.767H62.7203C61.8295 119.925 60.8582 121.036 59.9043 122.091C60.541 124.58 61.8208 126.372 64.6368 126.326C67.2746 126.282 69.1693 125.474 71.0032 123.582C72.4546 122.084 73.3629 120.472 73.93 118.767H78.7232C78.6754 121.516 78.4516 126.308 81.7826 126.219C83.6295 126.169 85.2243 125.484 86.4976 124.142C88.0121 122.542 88.9138 120.716 89.4505 118.767H94.1938C94.322 120.31 94.548 121.697 94.9369 122.717C95.4432 124.048 96.1059 125.354 97.4943 125.929C98.4243 126.313 99.5976 126.369 100.532 125.973C102.133 125.293 103.895 122.989 104.174 121.285C104.28 120.642 104.206 119.94 104.187 119.288C104.182 119.116 104.18 118.942 104.18 118.767H108.222C108.196 120.125 108.437 121.527 108.95 122.791C109.519 124.194 110.764 125.384 112.176 125.888C114.056 126.559 116.126 126.448 117.925 125.576C120.046 124.573 122.886 121.326 124.159 118.767H128.996C128.153 122.235 128.501 126.572 128.507 129.534C126.875 129.874 126.35 129.861 124.718 129.532C124.724 127.932 124.716 126.33 124.696 124.73C123.849 125.77 122.638 127.043 121.545 127.83C116.628 131.363 109.723 130.839 106.09 125.687C101.66 132.165 93.9982 131.485 91.2974 123.996C91.1345 124.321 90.9498 124.637 90.7499 124.942C87.0408 130.643 77.048 133.248 75.351 124.19C72.2743 128.488 66.5771 131.491 61.1668 129.488C59.0569 128.706 57.6837 126.55 56.9015 124.502C54.9394 126.387 52.7601 128.093 50.6437 129.795C49.7876 130.484 49.1097 130.985 48.4144 131.851C48.3492 134.261 48.4383 136.744 48.4101 139.202C48.4079 142.809 48.5535 147.308 45.7483 150.028C43.2952 152.408 38.1434 152.336 35.8228 149.751C34.2215 147.964 33.587 146.144 33.6848 143.772C33.9021 138.598 37.5372 134.44 41.4374 131.432C42.4239 130.674 43.7298 129.968 44.5946 129.122L44.5772 127.341C43.1366 128.734 41.3201 129.85 39.2907 130.037C32.0638 130.704 28.7351 124.639 29.1457 118.767H33.1546ZM44.4294 133.745C41.4744 136.103 38.0935 138.912 37.6524 142.942C37.4764 144.559 37.5785 146.041 38.7171 147.292C40.2663 148.543 41.998 148.474 43.3278 146.883C44.1057 145.95 44.5163 143.871 44.5337 142.7C44.5489 141.748 44.7532 134.072 44.4294 133.745Z" fill="#F4E2EB"/>
</g>
<mask id="mask4_1253_34077" style="mask-type:luminance" maskUnits="userSpaceOnUse" x="138" y="118" width="5" height="13">
<path d="M138.061 118.767H143V130.24H138.061V118.767Z" fill="white"/>
</mask>
<g mask="url(#mask4_1253_34077)">
<path d="M142.474 118.767C142.468 120.681 142.344 122.618 142.807 124.541C142.996 125.332 143.443 125.77 144.158 126.134C145.668 126.391 146.12 126.077 147.504 125.452C148.654 126.372 148.725 126.897 149.023 128.305C147.713 129.484 146.44 130.159 144.625 130.083C143.013 130.016 141.446 129.508 140.325 128.287C137.981 125.735 138.481 121.96 138.474 118.767H142.474Z" fill="#F4E2EB"/>
</g>
<mask id="mask5_1253_34077" style="mask-type:luminance" maskUnits="userSpaceOnUse" x="27" y="101" width="113" height="50">
<path d="M27.2032 101.151H139.426V150.884H27.2032V101.151Z" fill="white"/>
</mask>
<g mask="url(#mask5_1253_34077)">
<path fill-rule="evenodd" clip-rule="evenodd" d="M135.504 101.151C135.378 101.643 135.243 102.114 135.104 102.552C134.578 104.224 133.507 106.754 132.84 108.443C135.782 108.413 137.724 109.106 139.284 111.765C141.483 115.509 139.917 119.537 140.873 123.501C141.064 124.29 141.509 124.726 142.224 125.088C143.737 125.345 144.186 125.031 145.568 124.41C146.72 125.325 146.792 125.849 147.089 127.252C145.777 128.427 144.506 129.1 142.691 129.024C141.079 128.954 139.515 128.451 138.394 127.235C134.658 123.181 138.142 116.039 135.299 113.075C134.587 112.331 133.666 112.015 132.649 112.031C131.256 112.052 129.974 112.887 129.022 113.859C125.848 117.096 126.567 124.212 126.578 128.475C124.946 128.815 124.422 128.802 122.79 128.475C122.795 126.879 122.788 125.284 122.769 123.691C121.921 124.726 120.711 125.995 119.618 126.777C114.703 130.299 107.798 129.776 104.167 124.643C99.7389 131.097 92.0775 130.419 89.3788 122.959C89.2137 123.283 89.0312 123.597 88.8291 123.9C85.1223 129.58 75.1338 132.178 73.4368 123.15C70.3622 127.435 64.6651 130.425 59.2569 128.431C57.1449 127.653 55.7738 125.504 54.9894 123.462C53.0296 125.341 50.8502 127.041 48.7339 128.736C47.8778 129.423 47.202 129.922 46.5067 130.785C46.4415 133.187 46.5306 135.661 46.5024 138.11C46.5002 141.704 46.6479 146.185 43.8428 148.894C41.3897 151.268 36.2379 151.194 33.9195 148.617C32.3181 146.839 31.6815 145.024 31.7814 142.663C31.9987 137.507 35.6339 133.363 39.5319 130.367C40.5162 129.612 41.8243 128.908 42.6869 128.065L42.6717 126.293C41.2311 127.679 39.4146 128.791 37.3852 128.976C23.994 130.207 23.9788 108.393 36.3791 107.484C38.7215 107.312 40.6792 107.992 42.4739 109.478V107.792C44.1666 107.545 44.8228 107.476 46.4806 107.8C46.6458 113.517 46.498 119.984 46.5024 125.764C47.5366 124.813 49.0163 123.676 50.1375 122.714C51.6737 121.402 52.7666 120.334 54.2094 118.933C53.8292 116.666 53.8726 110.634 53.8552 108.101L53.8357 101.151H57.4447C57.4556 102.142 57.4686 103.097 57.4708 103.982C57.4643 107.859 57.4925 111.736 57.5534 115.614C58.1379 114.618 58.6767 114.193 59.2591 113.362C60.076 111.911 61.4254 109.629 61.9794 108.062C62.7399 105.919 63.3809 103.557 63.7438 101.151H67.4811C66.864 106.325 65.0627 111.266 62.2271 115.742C61.0321 117.625 59.4894 119.41 57.9923 121.06C58.6311 123.54 59.9087 125.328 62.7247 125.28C65.3625 125.236 67.2551 124.43 69.0889 122.547C73.1195 118.406 72.9609 113.378 72.9414 108.005C74.6753 107.702 75.1099 107.656 76.8199 108.025C76.8568 110.969 76.7547 113.994 76.8112 116.893C76.8612 119.319 76.1507 125.273 79.8662 125.173C81.7131 125.123 83.308 124.443 84.5791 123.105C88.6488 118.822 88.3011 112.911 88.2903 107.421L85.1375 107.417C85.0658 107.258 84.9984 107.094 84.9354 106.928C84.5334 105.858 84.6725 104.908 85.1244 103.895L88.2903 103.903V101.151H92.2101C92.2079 102.073 92.2035 102.992 92.2035 103.903L98.7329 103.912C99.1783 105.266 99.0805 106.118 98.7133 107.425L92.2057 107.421C92.1992 111.231 91.7559 118.384 93.0162 121.684C93.5224 123.011 94.1852 124.312 95.5736 124.883C96.5014 125.267 97.6747 125.323 98.609 124.929C100.21 124.251 101.973 121.954 102.251 120.258C102.357 119.617 102.283 118.918 102.264 118.268C102.222 116.758 102.344 115.276 102.896 113.855C103.843 111.423 105.56 109.289 107.993 108.247C110.338 107.245 112.848 107.162 115.212 108.125C116.1 108.487 117.593 109.04 117.954 110.004C118.097 110.387 118.021 110.777 117.847 111.135C117.5 111.85 116.746 112.676 115.987 112.953C115.674 112.691 114.434 111.658 114.114 111.556C107.287 109.346 104.949 116.651 107.027 121.76C107.594 123.157 108.839 124.34 110.251 124.842C112.131 125.511 114.201 125.4 115.998 124.532C118.401 123.399 121.73 119.393 122.654 116.771C122.93 115.993 122.782 112.811 122.786 111.732L122.78 101.722C122.78 101.532 122.78 101.34 122.777 101.151H126.454L126.458 111.636C127.199 110.814 127.525 110.143 128.042 109.167C128.67 108.018 129.663 106.36 130.132 105.176C130.639 103.897 131.156 102.543 131.597 101.151H135.504ZM42.5239 132.672C39.5689 135.02 36.1879 137.82 35.7468 141.835C35.5708 143.446 35.673 144.923 36.8137 146.17C38.3608 147.417 40.0925 147.347 41.4223 145.762C42.2002 144.834 42.6108 142.759 42.6282 141.593C42.6412 140.641 42.8455 132.991 42.5239 132.672ZM42.4739 113.704C40.6292 111.63 39.4255 111.017 36.5921 111.222C35.0624 111.575 34.4366 111.824 33.3133 112.979C31.2621 115.091 30.8449 118.331 31.4685 121.115C32.1247 124.048 34.3432 125.439 37.2504 125.162C43.1801 124.231 42.4935 118.225 42.4739 113.704Z" fill="white"/>
</g>
<mask id="mask6_1253_34077" style="mask-type:luminance" maskUnits="userSpaceOnUse" x="55" y="86" width="15" height="16">
<path d="M55.0459 86.1995H69.0867V101.682H55.0459V86.1995Z" fill="white"/>
</mask>
<g mask="url(#mask6_1253_34077)">
<path d="M61.434 86.2845C67.0269 85.914 68.7347 91.7114 68.9172 96.2207C68.9911 98.0645 68.9194 99.8888 68.7043 101.682H64.967C65.4298 98.6116 65.4429 95.4688 64.6759 92.6224C64.1696 90.7502 63.3461 89.8959 61.4253 89.9787C60.5171 90.4168 59.7522 91.051 59.4676 92.0361C58.668 94.8062 58.6397 98.4351 58.6723 101.682H55.0633L55.0611 100.682C55.0719 95.5538 54.6309 87.5028 61.1385 86.3085C61.2363 86.2997 61.3362 86.291 61.434 86.2845Z" fill="white"/>
</g>
<mask id="mask7_1253_34077" style="mask-type:luminance" maskUnits="userSpaceOnUse" x="89" y="96" width="5" height="6">
<path d="M89.1116 96.2054H93.5615V101.682H89.1116V96.2054Z" fill="white"/>
</mask>
<g mask="url(#mask7_1253_34077)">
<path d="M89.5071 96.7677C90.8195 96.3667 92.1036 96.4081 93.4117 96.7764C93.4334 98.3958 93.4312 100.043 93.4247 101.682H89.5071V96.7677Z" fill="white"/>
</g>
<mask id="mask8_1253_34077" style="mask-type:luminance" maskUnits="userSpaceOnUse" x="123" y="86" width="16" height="16">
<path d="M123.599 86.1995H138.061V101.682H123.599V86.1995Z" fill="white"/>
</mask>
<g mask="url(#mask8_1253_34077)">
<path d="M124.192 92.6529C124.587 88.1981 128.829 84.9746 133.146 86.6506C134.743 87.2783 136.027 88.5141 136.718 90.0877C138.111 93.2479 137.62 98.0776 136.703 101.682H132.799C133.761 98.6312 134.365 95.3991 133.715 92.363C133.318 90.4974 131.834 89.8828 130.113 89.9852C129.17 90.3645 128.614 90.8396 128.26 91.8116C127.36 94.2788 127.658 97.6178 127.658 100.218V101.682H123.983C123.975 98.6421 123.923 95.7042 124.192 92.6529Z" fill="white"/>
</g>
<mask id="mask9_1253_34077" style="mask-type:luminance" maskUnits="userSpaceOnUse" x="72" y="95" width="8" height="7">
<path d="M72.9805 95.0895H79.6554V101.682H72.9805V95.0895Z" fill="white"/>
</mask>
<g mask="url(#mask9_1253_34077)">
<path d="M75.8747 95.3685C77.4847 95.1789 78.9427 96.3362 79.1361 97.9512C79.3273 99.5706 78.1779 101.037 76.5678 101.234C74.9556 101.427 73.4889 100.272 73.2977 98.6508C73.1065 97.0315 74.2603 95.5603 75.8747 95.3685Z" fill="white"/>
</g>
</svg>
